<svg xmlns="http://www.w3.org/2000/svg" width="297.707" height="297.707" viewBox="0 0 297.707 297.707">
  <path id="Icon_metro-earth" data-name="Icon metro-earth" d="M151.424,1.928A148.853,148.853,0,1,0,300.277,150.781,148.853,148.853,0,0,0,151.424,1.928Zm0,279.1a129.81,129.81,0,0,1-51.526-10.6l67.783-76.255a9.3,9.3,0,0,0,2.35-6.181v-27.91a9.3,9.3,0,0,0-9.3-9.3c-32.849,0-67.508-34.15-67.849-34.488a9.3,9.3,0,0,0-6.578-2.725H49.087a9.3,9.3,0,0,0-9.3,9.3v55.82a9.3,9.3,0,0,0,5.143,8.321L77,203.048v54.624A130.326,130.326,0,0,1,33.719,94.961H67.694a9.3,9.3,0,0,0,6.578-2.725l37.214-37.214a9.3,9.3,0,0,0,2.725-6.579V25.939a130.611,130.611,0,0,1,94.278,7.737c-1.2,1.018-2.377,2.083-3.5,3.208a55.827,55.827,0,0,0,39.433,95.3q1.381,0,2.767-.069c4.016,15.06,11.266,54.266-2.443,108.248a9.276,9.276,0,0,0-.245,1.519,129.842,129.842,0,0,1-93.075,39.148Z" transform="translate(-2.571 -1.928)"/>
</svg>
