<svg xmlns="http://www.w3.org/2000/svg" width="169.019" height="270.43" viewBox="0 0 169.019 270.43">
  <path id="Icon_metro-location" data-name="Icon metro-location" d="M92.864,1.928A84.509,84.509,0,0,0,8.355,86.437c0,84.509,84.509,185.921,84.509,185.921s84.509-101.411,84.509-185.921A84.509,84.509,0,0,0,92.864,1.928Zm0,136.271a51.762,51.762,0,1,1,51.762-51.762A51.762,51.762,0,0,1,92.864,138.2ZM60.117,86.437a32.747,32.747,0,1,1,32.747,32.747A32.748,32.748,0,0,1,60.117,86.437Z" transform="translate(-8.355 -1.928)"/>
</svg>
