<svg xmlns="http://www.w3.org/2000/svg" width="282.429" height="282.43" viewBox="0 0 282.429 282.43">
  <path id="Icon_material-my-location" data-name="Icon material-my-location" d="M142.715,91.364a51.351,51.351,0,1,0,51.351,51.351A51.337,51.337,0,0,0,142.715,91.364Zm114.769,38.513A115.466,115.466,0,0,0,155.552,27.946V1.5H129.877V27.946A115.466,115.466,0,0,0,27.946,129.877H1.5v25.675H27.946A115.466,115.466,0,0,0,129.877,257.484V283.93h25.675V257.484A115.466,115.466,0,0,0,257.484,155.552H283.93V129.877Zm-114.769,102.7a89.864,89.864,0,1,1,89.864-89.864A89.8,89.8,0,0,1,142.715,232.579Z" transform="translate(-1.5 -1.5)"/>
</svg>
